<?xml version="1.0" standalone="no"?>
<!DOCTYPE svg PUBLIC "-//W3C//DTD SVG 20010904//EN"
 "http://www.w3.org/TR/2001/REC-SVG-20010904/DTD/svg10.dtd">
<svg version="1.0" xmlns="http://www.w3.org/2000/svg"
 width="587.000000pt" height="720.000000pt" viewBox="0 0 587.000000 720.000000"
 preserveAspectRatio="xMidYMid meet">

<g transform="translate(0.000000,720.000000) scale(0.100000,-0.100000)"
fill="#000000" stroke="none">
<path d="M4239 7185 c-103 -21 -303 -90 -414 -144 -211 -104 -402 -253 -537
-420 -175 -217 -288 -440 -332 -656 -16 -78 -35 -283 -36 -377 l0 -48 104 0
c285 0 526 96 780 309 255 215 473 584 541 915 18 89 37 364 28 408 -6 33 -25
35 -134 13z"/>
<path d="M4150 5449 c-171 -11 -295 -41 -630 -154 -91 -31 -238 -78 -328 -105
-239 -73 -224 -75 -622 60 -491 166 -590 186 -859 177 -244 -9 -392 -47 -626
-162 -376 -184 -629 -439 -829 -834 -130 -258 -189 -468 -236 -846 -28 -220
-26 -402 5 -647 47 -373 106 -637 214 -958 162 -480 377 -884 699 -1309 247
-328 426 -492 646 -597 235 -111 349 -101 883 81 338 115 362 119 593 120 242
0 269 -5 654 -131 432 -142 558 -158 753 -99 283 87 509 290 829 747 222 318
349 554 509 951 37 92 66 169 64 170 -2 1 -38 19 -79 41 -143 74 -271 168
-400 292 -232 225 -364 452 -435 748 -46 191 -50 596 -7 776 84 351 275 631
600 878 67 51 122 98 122 104 0 24 -155 200 -253 287 -255 227 -648 387 -1002
407 -49 2 -103 6 -120 7 -16 2 -82 0 -145 -4z"/>
</g>
</svg>
